{"title":"Hot Chelle Rae - Hung Up [Music Video] 720p [Sbyky]","uid":9303899,"size":48467807,"categoryP":"video","categoryS":"music_videos","magnet":"?xt=urn:btih:49c104e14dcfcad6844a28ec42b121ba84c72459&amp;dn=Hot+Chelle+Rae+-+Hung+Up+%5BMusic+Video%5D+720p+%5BSbyky%5D&amp;tr=udp%3A%2F%2Ftracker.openbittorrent.com%3A80&amp;tr=udp%3A%2F%2Fopen.demonii.com%3A1337&amp;tr=udp%3A%2F%2Ftracker.coppersurfer.tk%3A6969&amp;tr=udp%3A%2F%2Fexodus.desync.com%3A6969","seeders":0,"leechers":0,"uploader":"Sbyky","files":1,"time":1386283859,"description":"\n\nGeneral\nComplete name                            : Hot Chelle Rae - Hung Up [Music Video] 720p [Sbyky].MP4\nFormat                                   : MPEG-4\nFormat profile                           : Base Media\nCodec ID                                 : isom\nFile size                                : 46.2 MiB\nDuration                                 : 3mn 12s\nOverall bit rate mode                    : Variable\nOverall bit rate                         : 2 013 Kbps\nEncoded date                             : UTC 2013-11-13 20:25:45\nTagged date                              : UTC 2013-11-13 20:25:45\n\nVideo\nID                                       : 1\nFormat                                   : AVC\nFormat/Info                              : Advanced Video Codec\nFormat profile                           : &lt;a class=&quot;__cf_email__&quot; href=&quot;/cdn-cgi/l/email-protection&quot; data-cfemail=&quot;0c416d65624c403f223d&quot;&gt;[email&amp;#160;protected]&lt;/a&gt;&lt;script data-cfhash='f9e31' type=&quot;text/javascript&quot;&gt;\n/* &lt;![CDATA[ */!function(){try{var t=&quot;currentScript&quot;in document?document.currentScript:function(){for(var t=document.getElementsByTagName(&quot;script&quot;),e=t.length;e--;)if(t[e].getAttribute(&quot;data-cfhash&quot;))return t[e]}();if(t&amp;&amp;t.previousSibling){var e,r,n,i,c=t.previousSibling,a=c.getAttribute(&quot;data-cfemail&quot;);if(a){for(e=&quot;&quot;,r=parseInt(a.substr(0,2),16),n=2;a.length-n;n+=2)i=parseInt(a.substr(n,2),16)^r,e+=String.fromCharCode(i);e=document.createTextNode(e),c.parentNode.replaceChild(e,c)}t.parentNode.removeChild(t);}}catch(u){}}()/* ]]&gt; */&lt;/script&gt;\nFormat settings, CABAC                   : Yes\nFormat settings, ReFrames                : 3 frames\nCodec ID                                 : avc1\nCodec ID/Info                            : Advanced Video Coding\nDuration                                 : 3mn 12s\nDuration_LastFrame                       : -42ms\nBit rate                                 : 1 757 Kbps\nWidth                                    : 1 280 pixels\nHeight                                   : 720 pixels\nDisplay aspect ratio                     : 16:9\nFrame rate mode                          : Constant\nFrame rate                               : 23.976 fps\nColor space                              : YUV\nChroma subsampling                       : 4:2:0\nBit depth                                : 8 bits\nScan type                                : Progressive\nBits/(Pixel*Frame)                       : 0.080\nStream size                              : 40.3 MiB (87%)\nEncoded date                             : UTC 2013-11-13 20:25:45\nTagged date                              : UTC 2013-11-13 20:25:45\n\nAudio\nID                                       : 2\nFormat                                   : AAC\nFormat/Info                              : Advanced Audio Codec\nFormat profile                           : LC\nCodec ID                                 : 40\nDuration                                 : 3mn 12s\nBit rate mode                            : Variable\nBit rate                                 : 254 Kbps\nChannel(s)                               : 2 channels\nChannel positions                        : Front: L R\nSampling rate                            : 44.1 KHz\nCompression mode                         : Lossy\nDelay relative to video                  : 42ms\nStream size                              : 5.82 MiB (13%)\nEncoded date                             : UTC 2013-11-13 20:24:51\nTagged date                              : UTC 2013-11-13 20:24:51\n\nShared By Sbyky\n","torrent":{"xt":"urn:btih:49c104e14dcfcad6844a28ec42b121ba84c72459","amp;dn":"Hot+Chelle+Rae+-+Hung+Up+%5BMusic+Video%5D+720p+%5BSbyky%5D","amp;tr":["udp%3A%2F%2Ftracker.openbittorrent.com%3A80","udp%3A%2F%2Fopen.demonii.com%3A1337","udp%3A%2F%2Ftracker.coppersurfer.tk%3A6969","udp%3A%2F%2Fexodus.desync.com%3A6969"],"infoHash":"49c104e14dcfcad6844a28ec42b121ba84c72459","infoHashBuffer":{"type":"Buffer","data":[73,193,4,225,77,207,202,214,132,74,40,236,66,177,33,186,132,199,36,89]},"announce":[],"urlList":[]}}